<?xml version="1.0" encoding="utf-8"?>
<svg viewBox="0 0 800 800" xmlns="http://www.w3.org/2000/svg">
  <defs>
    <style>.cls-1{fill:#e6f3ff;}.cls-2{fill:#b8deff;}.cls-3{fill:#413d68;}.cls-4{fill:#2199ff;}.cls-5{fill:#fff;}.cls-6{fill:#e4e4ea;}.cls-7{fill:#9794ac;}.cls-8{opacity:0.1;}.cls-9{fill:#636083;}.cls-10{fill:#fcfeff;}</style>
  </defs>
  <path class="cls-2" d="M207.83,361.68a46.4,46.4,0,0,0,.72,14.09s16-6.23,16-6.21c5.16,17.57,2.48,40-25.11,47.64-24,6.61-39.13-7.56-45-25.07l-.07,0c-2.24-3.11-16.39-36.75-16.42-36.77,1.65-10.26-44.11-44.77-48.83-52.36-40.35-65,21.58-103.23,27.79-111.11,25.24-32.07,80.88,72.37,108.63,74.93,3.21,18.72-1.07,39.23-8.12,55.18A109.55,109.55,0,0,0,207.83,361.68Z"/>
  <path class="cls-3" d="M172.52,352.11c5.84,18.58,14.73,36.78,39.91,29.25,24.1-7.19,19.88-27.62,14-46.2S207,313.5,191.89,318.23,166.68,333.52,172.52,352.11Z"/>
  <path class="cls-4" d="M90.77,263.52c3,15.66,11.45,26.16,17.41,33.51a77.54,77.54,0,0,0,21.22,18.16c2.63,1.53,11,6.8,13.8,8,17.19,10.51,28,28.69,30.2,31.8.15.2,5.32.87,14.22-.59,1.69-.27,3.51-.62,5.45-1.07,2.34-.54,4.87-1.21,7.56-2,3-.93,5.65-1.86,8.07-2.77q2.81-1,5.15-2c9.83-4.18,13.8-7.52,13.75-7.8a46.19,46.19,0,0,1-.73-14.09,109.83,109.83,0,0,1,9.59-39.71c8.26-18.69,12.72-43.66,5.78-64.67-13.06-39.53-56.2-57.88-96.08-46C104.76,186.63,82.68,221.21,90.77,263.52Z"/>
  <path class="cls-1" d="M144.3,285.07c7.86,9.1,16.27,12,23.72,12,5.58,13,12.19,31.11,19.6,57.36,1.69-.27,3.51-.62,5.45-1.07-7.22-25.62-13.7-43.7-19.27-56.83a34.9,34.9,0,0,0,5.49-1.49,48.85,48.85,0,0,0,13.32-7.52c2.41,16.69,7.91,37.56,16.09,61q2.81-1,5.15-2c-9.73-27.87-14.48-48.48-16.24-63.28,9.36-8.9,16-20.27,16.21-28.05.17-5.67-3-7.86-4.88-8.66-4.43-1.86-8.58-1.27-11.69,1.68-5.24,5-7.11,16.35-5.42,33a46.13,46.13,0,0,1-14.4,8.7,29.73,29.73,0,0,1-5.91,1.48A197.83,197.83,0,0,0,161.64,272c-4.43-7.56-10-11.68-15.4-11.32a8.57,8.57,0,0,0-7.42,5.42C136.6,271.43,138.65,278.52,144.3,285.07Zm52.66-9c-.88-14,1.35-21.31,4.1-23.93a4.49,4.49,0,0,1,1.7-1,5.77,5.77,0,0,1,4,.45c.43.18,1.58.67,1.5,3.4C208.14,260.3,203.73,268.69,197,276.1Zm-53-7.85a3.18,3.18,0,0,1,1.93-1.9,3.44,3.44,0,0,1,.76-.13c2.41-.17,6.39,2,10.24,8.59,2.44,4.16,5.33,9.44,8.62,16.56-6.23-.72-11.92-4-17-9.92S142.9,270.72,143.93,268.25Z"/>
  <path class="cls-5" d="M121.83,131.48c-5.14,1.3-6,4.66-3.74,10.23,4.63,11.29,9.2,15,10.81,14.49C132.11,155.14,132.5,128.78,121.83,131.48Z"/>
  <path class="cls-5" d="M236.59,134.22c-3.9-3.59-7.19-2.49-10.61,2.46-6.94,10-7.56,15.91-6.24,17C222.38,155.76,244.68,141.69,236.59,134.22Z"/>
  <path class="cls-5" d="M276.75,214.35c1-5.21-1.72-7.42-7.73-7.67-12.2-.51-17.49,2.09-17.68,3.77C251,213.81,274.75,225.18,276.75,214.35Z"/>
  <path class="cls-5" d="M43.61,212.08c-1.17,5.17,1.42,7.48,7.42,8,12.16,1,17.85-1.37,17.81-3.06C68.73,212,46,201.34,43.61,212.08Z"/>
  <path class="cls-5" d="M53,290.61c2.36,4.74,5.83,4.89,10.78,1.47,10.06-6.92,13-12.35,11.86-13.64C72.39,274.64,48.07,280.75,53,290.61Z"/>
  <path class="cls-5" d="M102.35,237.77c3.84,1.8,9.14-2.61,15.21-14.64,2.76-5.48,7.06-14.23,5.17-17-3.42-5.09-10-5.11-13.79-.29C100.1,217,94.67,234.19,102.35,237.77Z"/>
  <path class="cls-5" d="M95.53,253.08c.44,4.55,3.58,6,6.13,5.23s4.68-7.67,3.88-10.23a4.84,4.84,0,0,0-6.07-3.16C96.92,245.72,95.28,250.41,95.53,253.08Z"/>
  <polygon class="cls-2" points="438.32 455.18 459.9 451.54 478.58 432.52 511.99 467.25 535.09 452.89 551.39 466.15 583.33 431.06 608.45 428.74 635.39 388.88 664.66 418.21 681.95 391.45 692.74 389.91 707.08 363.32 735.1 409.7 774.28 562.08 437.7 562.08 438.32 455.18"/>
  <polygon class="cls-5" points="442.17 506.18 441.56 505.4 474.06 480.05 521.47 475.98 521.56 476.01 563.38 487.09 599.98 455.32 600.13 455.3 651.4 447.94 689.61 422.23 707.32 381.83 708.22 382.22 690.4 422.89 690.28 422.97 651.77 448.88 651.65 448.9 600.41 456.26 563.64 488.18 563.38 488.12 521.39 476.99 474.44 481.01 442.17 506.18"/>
  <path class="cls-2" d="M443.61,505.59a4.47,4.47,0,1,1-4.47-4.47A4.47,4.47,0,0,1,443.61,505.59Z"/>
  <path class="cls-5" d="M439.14,510.55a5,5,0,1,1,5-5A5,5,0,0,1,439.14,510.55Zm0-8.94a4,4,0,1,0,4,4A4,4,0,0,0,439.14,501.61Z"/>
  <path class="cls-2" d="M478.51,480.53a4.47,4.47,0,1,1-4.47-4.47A4.47,4.47,0,0,1,478.51,480.53Z"/>
  <path class="cls-5" d="M474,485.49a5,5,0,1,1,5-5A5,5,0,0,1,474,485.49Zm0-8.94a4,4,0,1,0,4,4A4,4,0,0,0,474,476.55Z"/>
  <path class="cls-6" d="M525.9,475.81a4.47,4.47,0,1,1-4.47-4.47A4.47,4.47,0,0,1,525.9,475.81Z"/>
  <path class="cls-5" d="M521.43,480.77a5,5,0,1,1,5-5A5,5,0,0,1,521.43,480.77Zm0-8.94a4,4,0,1,0,4,4A4,4,0,0,0,521.43,471.83Z"/>
  <circle class="cls-6" cx="563.3" cy="487.74" r="4.47"/>
  <path class="cls-5" d="M563.3,492.7a5,5,0,1,1,5-5A5,5,0,0,1,563.3,492.7Zm0-8.93a4,4,0,1,0,4,4A4,4,0,0,0,563.3,483.77Z"/>
  <path class="cls-2" d="M604.67,456.3a4.47,4.47,0,1,1-4.47-4.47A4.47,4.47,0,0,1,604.67,456.3Z"/>
  <path class="cls-5" d="M600.2,461.26a5,5,0,1,1,5-5A5,5,0,0,1,600.2,461.26Zm0-8.94a4,4,0,1,0,4,4A4,4,0,0,0,600.2,452.32Z"/>
  <path class="cls-6" d="M656.05,448a4.47,4.47,0,1,1-4.47-4.47A4.47,4.47,0,0,1,656.05,448Z"/>
  <path class="cls-5" d="M651.58,453a5,5,0,1,1,5-5A5,5,0,0,1,651.58,453Zm0-8.94a4,4,0,1,0,4,4A4,4,0,0,0,651.58,444.05Z"/>
  <path class="cls-6" d="M694.51,422.68a4.47,4.47,0,1,1-4.47-4.47A4.47,4.47,0,0,1,694.51,422.68Z"/>
  <path class="cls-5" d="M690,427.64a5,5,0,1,1,5-5A5,5,0,0,1,690,427.64Zm0-8.94a4,4,0,1,0,4,4A4,4,0,0,0,690,418.7Z"/>
  <path class="cls-2" d="M712.45,382a4.47,4.47,0,1,1-4.47-4.47A4.47,4.47,0,0,1,712.45,382Z"/>
  <path class="cls-5" d="M708,387a5,5,0,1,1,5-5A5,5,0,0,1,708,387Zm0-8.94a4,4,0,1,0,4,4A4,4,0,0,0,708,378.06Z"/>
  <rect class="cls-7" x="614.96" y="434.85" width="45.36" height="127.26"/>
  <g class="cls-8">
    <rect class="cls-3" x="649.93" y="434.85" width="10.39" height="127.26"/>
  </g>
  <rect class="cls-4" x="674.72" y="386.76" width="45.36" height="175.36"/>
  <g class="cls-8">
    <rect class="cls-3" x="709.69" y="386.76" width="10.39" height="175.36"/>
  </g>
  <rect class="cls-4" x="555.32" y="463.51" width="45.36" height="98.6"/>
  <g class="cls-8">
    <rect class="cls-3" x="590.29" y="463.51" width="10.39" height="98.6"/>
  </g>
  <rect class="cls-4" x="494.28" y="463.51" width="45.36" height="98.6"/>
  <g class="cls-8">
    <rect class="cls-3" x="529.25" y="463.51" width="10.39" height="98.6"/>
  </g>
  <rect class="cls-4" x="734.48" y="322.71" width="45.36" height="239.4"/>
  <g class="cls-8">
    <rect class="cls-3" x="769.46" y="322.71" width="10.39" height="239.4"/>
  </g>
  <path class="cls-3" d="M784.06,310.11l-7.2-2.38c-7.51,26.67-59.65,186.55-237.61,216.15V499.35S702.52,485.45,770,305.47l-6.83-2.27L780.48,286Z"/>
  <polygon class="cls-9" points="434.67 561.87 486.86 561.78 591.24 561.62 695.62 561.78 747.81 561.87 800 562.11 747.81 562.36 695.62 562.44 591.24 562.61 486.86 562.44 434.67 562.35 434.67 561.87"/>
  <rect class="cls-4" x="614.96" y="434.85" width="45.36" height="127.26"/>
  <g class="cls-8">
    <rect class="cls-3" x="649.93" y="434.85" width="10.39" height="127.26"/>
  </g>
  <path class="cls-10" d="M381.56,286.93l6.2-16.6-5.08-1.9a4.19,4.19,0,0,1-2.7-3.5,23.48,23.48,0,0,0-.44-2.62,4.23,4.23,0,0,1,1.41-4.18l4.18-3.45L373.85,241l-4.19,3.45a4.18,4.18,0,0,1-4.37.59c-.81-.35-1.64-.66-2.48-.93a4.19,4.19,0,0,1-2.93-3.31l-.9-5.35-17.48,2.94.91,5.37a4.24,4.24,0,0,1-1.7,4.08c-.35.26-.7.52-1,.8s-.67.57-1,.86a4.2,4.2,0,0,1-4.31.89l-5.12-1.91-6.2,16.61,5.09,1.9a4.19,4.19,0,0,1,2.69,3.51,26.33,26.33,0,0,0,.44,2.61,4.2,4.2,0,0,1-1.41,4.17l-4.19,3.46L337,294.42l4.19-3.46a4.18,4.18,0,0,1,4.36-.58c.81.35,1.64.65,2.48.92a4.19,4.19,0,0,1,2.93,3.31l.9,5.36L369.32,297l-.91-5.36a4.24,4.24,0,0,1,1.7-4.07c.35-.26.7-.53,1-.81s.66-.57,1-.86a4.23,4.23,0,0,1,4.34-.9Zm-16.91-8a14.52,14.52,0,1,1,2-20.44A14.51,14.51,0,0,1,364.65,278.91Z"/>
  <path class="cls-10" d="M513.19,284.91l13-34.74-10.64-4a8.83,8.83,0,0,1-5.65-7.33,51.32,51.32,0,0,0-.91-5.48,8.8,8.8,0,0,1,2.94-8.75l8.76-7.22-23.62-28.63L488.31,196a8.81,8.81,0,0,1-9.15,1.23,50.16,50.16,0,0,0-5.2-1.94,8.82,8.82,0,0,1-6.13-6.94L466,177.17l-36.58,6.15,1.9,11.24a8.83,8.83,0,0,1-3.56,8.54c-.73.54-1.45,1.1-2.15,1.68s-1.39,1.18-2.06,1.79a8.8,8.8,0,0,1-9,1.88l-10.72-4-13,34.75,10.66,4a8.81,8.81,0,0,1,5.63,7.34A53.87,53.87,0,0,0,408,256a8.82,8.82,0,0,1-2.94,8.74L396.27,272l23.62,28.62,8.76-7.23a8.84,8.84,0,0,1,9.14-1.23A52.14,52.14,0,0,0,443,294a8.82,8.82,0,0,1,6.14,6.93L451,312.19l36.58-6.14-1.89-11.23a8.82,8.82,0,0,1,3.56-8.52c.73-.54,1.45-1.11,2.16-1.69s1.4-1.18,2.07-1.8a8.84,8.84,0,0,1,9.06-1.88Zm-35.38-16.79a30.39,30.39,0,1,1,4.13-42.77A30.35,30.35,0,0,1,477.81,268.12Z"/>
  <path class="cls-10" d="M445.33,388.34,456,359.81l-8.74-3.26a7.22,7.22,0,0,1-4.63-6,43.35,43.35,0,0,0-.75-4.49,7.21,7.21,0,0,1,2.41-7.18l7.19-5.94-19.39-23.5-7.19,5.94a7.23,7.23,0,0,1-7.51,1,41.37,41.37,0,0,0-4.27-1.59,7.27,7.27,0,0,1-5-5.69l-1.54-9.2-30,5.05,1.56,9.23a7.24,7.24,0,0,1-2.93,7c-.59.44-1.18.9-1.76,1.38s-1.15,1-1.7,1.47a7.19,7.19,0,0,1-7.4,1.54l-8.8-3.28-10.66,28.53,8.75,3.27a7.23,7.23,0,0,1,4.63,6,42.54,42.54,0,0,0,.75,4.47,7.24,7.24,0,0,1-2.42,7.18l-7.2,5.94,19.39,23.5,7.2-5.94a7.22,7.22,0,0,1,7.5-1,41,41,0,0,0,4.25,1.58,7.25,7.25,0,0,1,5,5.69l1.55,9.22,30-5.05-1.55-9.22a7.21,7.21,0,0,1,2.92-7c.6-.45,1.19-.91,1.78-1.39s1.14-1,1.69-1.47a7.24,7.24,0,0,1,7.44-1.55Zm-29.05-13.79a24.94,24.94,0,1,1,3.38-35.11A24.93,24.93,0,0,1,416.28,374.55Z"/>
  <path class="cls-2" d="M409.43,508.22l-57.3,49.1L349.28,529c-5.91-.31-11.71-.39-17.54-1l-8.76-1.2c-1.46-.23-2.89-.37-4.34-.68l-4.34-1a99.52,99.52,0,0,1-32.73-13.25,76.41,76.41,0,0,1-24.37-24.46c-5.92-9.65-9.72-20.52-10-31.37,2.74,10.45,8.66,19.61,15.83,26.9a65.26,65.26,0,0,0,25.15,15.89A81.77,81.77,0,0,0,317,503.34l3.65,0c1.22,0,2.48-.2,3.72-.29l7.34-.66c4.9-.63,9.83-1.74,14.66-2.55l-2.85-28.37Z"/>
  <path class="cls-5" d="M408.13,497.17l-57.3,49.1L348,517.9c-5.92-.31-11.72-.39-17.55-1l-8.75-1.19c-1.46-.23-2.9-.37-4.35-.68L313,514a99.7,99.7,0,0,1-32.74-13.25,76.51,76.51,0,0,1-24.37-24.46c-5.92-9.66-9.72-20.52-10-31.38,2.73,10.46,8.66,19.62,15.83,26.91a65.16,65.16,0,0,0,25.15,15.88,81.48,81.48,0,0,0,28.86,4.56l3.65,0c1.21,0,2.47-.2,3.71-.29l7.35-.67c4.9-.62,9.83-1.73,14.66-2.54l-2.86-28.37Z"/>
</svg>