<?xml version="1.0" encoding="UTF-8"?>
<svg aria-hidden="true" xmlns="http://www.w3.org/2000/svg" viewBox="0 0 300 100" preserveAspectRatio="xMidYMax meet">
    <path d="M30.91 43.94s42.91-34.46 87.51-14.19c77.31 35.14 113.3-1.95 146.64-4.73 48.65-4.06 69.94 16.22 69.94 16.22v54.4H30.91V43.94z" fill="#FFF" opacity="0.6"/>
    <path d="M-35.67 44.63s42.91-34.46 87.51-14.19c77.31 35.14 113.3-1.95 146.64-4.73 48.65-4.06 69.94 16.22 69.94 16.22v54.4H-35.67V44.63z" fill="#FFF" opacity="0.6"/>
    <path d="M43.42 98.34s48.28-68.93 109.13-68.93c65.89 0 97.98 67.91 97.98 67.91v3.72H42.4l1.02-2.7z" fill="#FFF" opacity="0.7"/>
    <path d="M-34.67 62.99s56-45.67 120.32-27.84c81.83 22.68 111.35 6.17 146.62-4.73 53.07-16.4 104.05 36.9 104.05 36.9l1.33 36.67-372-2.95L-34.67 62.99z" fill="#FFF"/>
</svg>

